<svg id="visual" viewBox="0 0 1440 150" width="1440" height="150" xmlns="http://www.w3.org/2000/svg" xmlns:xlink="http://www.w3.org/1999/xlink" version="1.1"><path d="M0 73L30 75.7C60 78.3 120 83.7 180 90.5C240 97.3 300 105.7 360 96C420 86.3 480 58.7 540 44.3C600 30 660 29 720 42.8C780 56.7 840 85.3 900 103.7C960 122 1020 130 1080 127C1140 124 1200 110 1260 97.8C1320 85.7 1380 75.3 1410 70.2L1440 65L1440 0L1410 0C1380 0 1320 0 1260 0C1200 0 1140 0 1080 0C1020 0 960 0 900 0C840 0 780 0 720 0C660 0 600 0 540 0C480 0 420 0 360 0C300 0 240 0 180 0C120 0 60 0 30 0L0 0Z" fill="#3B393F" stroke-linecap="round" stroke-linejoin="miter"></path></svg>