<svg id="visual" viewBox="0 0 1440 150" width="1440" height="150" xmlns="http://www.w3.org/2000/svg" xmlns:xlink="http://www.w3.org/1999/xlink" version="1.1"><path d="M0 20L26.7 34.5C53.3 49 106.7 78 160 74.8C213.3 71.7 266.7 36.3 320 36.2C373.3 36 426.7 71 480 86.5C533.3 102 586.7 98 640 105.2C693.3 112.3 746.7 130.7 800 125.2C853.3 119.7 906.7 90.3 960 68.7C1013.3 47 1066.7 33 1120 46.3C1173.3 59.7 1226.7 100.3 1280 109.8C1333.3 119.3 1386.7 97.7 1413.3 86.8L1440 76L1440 151L1413.3 151C1386.7 151 1333.3 151 1280 151C1226.7 151 1173.3 151 1120 151C1066.7 151 1013.3 151 960 151C906.7 151 853.3 151 800 151C746.7 151 693.3 151 640 151C586.7 151 533.3 151 480 151C426.7 151 373.3 151 320 151C266.7 151 213.3 151 160 151C106.7 151 53.3 151 26.7 151L0 151Z" fill="#3B393F" stroke-linecap="round" stroke-linejoin="miter"></path></svg>